<?xml version="1.0" encoding="UTF-8"?>
<svg xmlns="http://www.w3.org/2000/svg" xmlns:xlink="http://www.w3.org/1999/xlink" viewBox="0 0 598.65 706.24">
  <defs>
    <style>
      .cls-1 {
        fill: #eaeaea;
      }

      .cls-1, .cls-2, .cls-3, .cls-4, .cls-5, .cls-6, .cls-7, .cls-8, .cls-9, .cls-10, .cls-11, .cls-12, .cls-13, .cls-14, .cls-15, .cls-16, .cls-17, .cls-18, .cls-19, .cls-20, .cls-21, .cls-22, .cls-23, .cls-24, .cls-25, .cls-26 {
        stroke: #000;
        stroke-miterlimit: 10;
      }

      .cls-1, .cls-2, .cls-3, .cls-4, .cls-5, .cls-6, .cls-7, .cls-8, .cls-11, .cls-12, .cls-13, .cls-15, .cls-16, .cls-17, .cls-18, .cls-19, .cls-20, .cls-21, .cls-22, .cls-24, .cls-25, .cls-26 {
        stroke-linecap: round;
      }

      .cls-1, .cls-3, .cls-4, .cls-6, .cls-8, .cls-9, .cls-11, .cls-13, .cls-14, .cls-15, .cls-24, .cls-25 {
        stroke-width: 2px;
      }

      .cls-27, .cls-9, .cls-10 {
        fill: #f4b425;
      }

      .cls-28 {
        clip-path: url(#clippath-6);
      }

      .cls-29 {
        clip-path: url(#clippath-7);
      }

      .cls-30 {
        fill: url(#_Безымянный_градиент_118);
      }

      .cls-2, .cls-13, .cls-31, .cls-26 {
        fill: #aaa;
      }

      .cls-2, .cls-20 {
        stroke-width: 2.54px;
      }

      .cls-32 {
        clip-path: url(#clippath-4);
      }

      .cls-3, .cls-5, .cls-12, .cls-14, .cls-18, .cls-19, .cls-20, .cls-22, .cls-23 {
        fill: none;
      }

      .cls-33 {
        fill: url(#_Безымянный_градиент_5);
        mix-blend-mode: overlay;
      }

      .cls-34 {
        fill: #fff;
      }

      .cls-4, .cls-35, .cls-17, .cls-21 {
        fill: #bfbfbf;
      }

      .cls-5 {
        stroke-width: 19px;
      }

      .cls-6 {
        fill: #ffe600;
      }

      .cls-7 {
        fill: #60b4e8;
      }

      .cls-8, .cls-36 {
        fill: url(#_Безымянный_градиент_154);
      }

      .cls-37 {
        clip-path: url(#clippath-1);
      }

      .cls-10, .cls-23 {
        stroke-width: 1.34px;
      }

      .cls-11 {
        fill: #e8cc00;
      }

      .cls-12, .cls-26 {
        stroke-width: 2.69px;
      }

      .cls-38 {
        isolation: isolate;
      }

      .cls-15, .cls-39 {
        fill: #dbdbdb;
      }

      .cls-40 {
        clip-path: url(#clippath-5);
      }

      .cls-16 {
        fill: #636363;
      }

      .cls-41 {
        clip-path: url(#clippath-8);
      }

      .cls-18, .cls-21 {
        stroke-width: 2.68px;
      }

      .cls-42 {
        fill: #878787;
      }

      .cls-43 {
        clip-path: url(#clippath-3);
      }

      .cls-44 {
        fill: url(#_Безымянный_градиент_152);
      }

      .cls-45 {
        fill: #efefef;
      }

      .cls-46 {
        fill: #fce0b9;
      }

      .cls-22 {
        stroke-width: 18px;
      }

      .cls-47, .cls-24 {
        fill: #f4f4f4;
      }

      .cls-48 {
        fill: #76f4f4;
      }

      .cls-49 {
        clip-path: url(#clippath-2);
      }

      .cls-25 {
        fill: #ffdc2e;
      }

      .cls-50 {
        clip-path: url(#clippath);
      }

      .cls-51 {
        fill: #e5e5e5;
        opacity: .3;
      }

      .cls-52 {
        fill: #ba8313;
      }
    </style>
    <clipPath id="clippath">
      <path class="cls-26" d="M331.4,623.81s6.46,35-3.46,49.91c-9.92,14.9-27.11,14.9-27.11,14.9,0,0-15.36,1.61-39.44-20.64,0,0-13.99-3.67-19.95-14.9l82.07-62.54,7.89,33.27Z"/>
    </clipPath>
    <clipPath id="clippath-1">
      <path class="cls-9" d="M133.17,444.93c-1.62-.77-14.1-7.15-23.85-25.93-.53-1.02-1.74-1.48-2.82-1.09l-24.45,8.72s-7.57,3.9-8.71,8.25l-41.73,11.01s-12.15,3.44-11.92,11.92c0,0-2.75,12.84,13.07,19.95,12.34,5.54,20.35,7.88,23.28,8.64.46.12.55.73.14.98l-14.25,8.72s-5.96,3.9-3.9,10.55,11.69,6.88,11.69,6.88c0,0,19.72-1.38,32.1-7.11,0,0,7.57,10.32,22.47,8.48,14.9-1.83,24.08-2.06,24.08-2.06,0,0,17.57,3.02,26.93,12.91.3.31-1.22-2.04-1.41-2.43-4.16-8.5-15.26-34.43-20.53-78.12-.01-.12-.09-.23-.2-.28Z"/>
    </clipPath>
    <clipPath id="clippath-2">
      <path class="cls-10" d="M241.43,653.08s-47.86-38.39-65.9-93.42c0,0-33.83-39.62-42.15-114.31-.01-.13.13-.21.23-.14,3.7,2.86,45.74,34.41,100.02,33.42,0,0,1.53,57.48,15.9,90.5,0,0,1.56,4.09,4.41,9.62,9.51,18.45,27.5,31.27,48.15,33.43,3.14.33,6.3.42,9.33.15,0,0,6.9,13.36-20.92,36.13,0,0-17.08,14.94-49.05,4.6Z"/>
    </clipPath>
    <clipPath id="clippath-3">
      <path class="cls-4" d="M81.82,506.42s-19.04-19.3-8.48-71.54c0,0,.24-3.94,8.71-8.25,5.92-3.02,21.32-6.71,23.22-8.06.02-.01.32-.23-.31.19-1.54,1.02-18.35,10.9-9.38,49.64,9.4,40.59,32.78,44.45,32.78,44.45,0,0-8.9.19-19.21,1.5-12.49,1.58-19.54.38-27.34-7.92Z"/>
    </clipPath>
    <clipPath id="clippath-4">
      <path class="cls-2" d="M438.97,576.85s21.63,8.56,26.22,36.54c0,0,7.34,35.54-4.36,52.97,0,0-11.69,20.41-34.62,16.74,0,0-16.51-1.38-36.92-19.03,0,0-14.17-1.08-24.55-16.06l74.23-71.15Z"/>
    </clipPath>
    <clipPath id="clippath-5">
      <path class="cls-10" d="M407.89,528.48l30.88,48.31s6.73,33.02-15.44,54.11c-22.17,21.1-36.54,19.57-36.54,19.57,0,0-24.15,7.34-51.36-25.07,0,0-12.84-3.67-11.92-13.15,0,0-17.43-1.22-30.88-18.65s-13.45-33.02-13.45-33.02c0,0-12.84-44.03-11.01-82.24,0,0,78.27,3.06,139.72-38.52,0,0-26.6,40.05,5.81,73.68,0,0-.31,2.14-5.81,14.98Z"/>
    </clipPath>
    <clipPath id="clippath-6">
      <path class="cls-9" d="M407.89,439.81s38.87-23.55,54.02-38.67c1.04-1.04,2.53-1.46,3.96-1.11l25.13,6.23s4.77-2.71,13.71-1.74c3.6.39,7.11,1.39,10.45,2.78,5.46,2.28,14.37,6.66,12.88,10.5l42.8,8.87s11.31,2.14,11.01,13.15c0,0,5.7,21.92-48.94,29.75-.47.07-.59.7-.17.92l16.09,8.47s9.78,7.64,2.14,14.37c0,0-4.89,7.95-19.26,4.28l-14.56-3.44s-1.03,5.94-16.93,6.19c-20.49.32-26.6,0-26.6,0,0,0-3.67.31-7.64-3.97,0,0-24.46,3.67-31.49,7.95,0,0-15.59,12.23-20.79,9.17s-29.66-33.94-5.81-73.68Z"/>
    </clipPath>
    <clipPath id="clippath-7">
      <path class="cls-21" d="M517.34,493.62s-20.95-.46-12.38-43.72c0,0,6.57-27.67,23.08-32.1,0,0,2.91-3.79-11.7-10.01-3.73-1.59-7.68-2.65-11.71-3.09-4.95-.54-11.38-.62-14.2,2.02,0,0-22.93,19.22-23.69,49.39s15.59,44.38,15.59,44.38l17.89-.14s13.76.46,17.12-6.73Z"/>
    </clipPath>
    <radialGradient id="_Безымянный_градиент_154" data-name="Безымянный градиент 154" cx="280.71" cy="243.42" fx="61.5" fy="215.27" r="235.29" gradientUnits="userSpaceOnUse">
      <stop offset=".63" stop-color="#333"/>
      <stop offset=".99" stop-color="#fff"/>
    </radialGradient>
    <clipPath id="clippath-8">
      <path class="cls-8" d="M514.4,215.91c8.65,118.15-79.73,232.77-207.39,252.98-139.75,22.12-261.96-76.77-260.57-216.46C47.77,119.32,162.07,15.42,291.23,14.85c118.82-.52,214.87,87.69,223.17,201.06Z"/>
    </clipPath>
    <radialGradient id="_Безымянный_градиент_152" data-name="Безымянный градиент 152" cx="262.39" cy="250.2" fx="109.59" fy="355.86" r="208.19" gradientUnits="userSpaceOnUse">
      <stop offset=".77" stop-color="#333" stop-opacity=".9"/>
      <stop offset="1" stop-color="#fff"/>
    </radialGradient>
    <linearGradient id="_Безымянный_градиент_118" data-name="Безымянный градиент 118" x1="114.66" y1="115.85" x2="392.62" y2="393.8" gradientUnits="userSpaceOnUse">
      <stop offset="0" stop-color="#fff"/>
      <stop offset=".07" stop-color="#e1f6ff"/>
      <stop offset=".21" stop-color="#a6e5ff"/>
      <stop offset=".36" stop-color="#73d7ff"/>
      <stop offset=".5" stop-color="#49cbff"/>
      <stop offset=".64" stop-color="#29c1ff"/>
      <stop offset=".77" stop-color="#12bbff"/>
      <stop offset=".89" stop-color="#04b7ff"/>
      <stop offset="1" stop-color="#00b6ff"/>
    </linearGradient>
    <radialGradient id="_Безымянный_градиент_5" data-name="Безымянный градиент 5" cx="182.96" cy="135.45" fx="182.96" fy="135.45" r="176.72" gradientUnits="userSpaceOnUse">
      <stop offset="0" stop-color="#fff"/>
      <stop offset="1" stop-color="#fff" stop-opacity="0"/>
    </radialGradient>
  </defs>
  <g class="cls-38">
    <g id="_Слой_2" data-name="Слой_2">
      <g>
        <g>
          <path class="cls-13" d="M495.87,323.51s44.03,4.59,43.11,55.95c-.74,41.42-3.86,102.82-5.05,125.04-.52,9.8-4.59,19.13-11.65,25.94-4.26,4.11-10.12,8.52-18.15,12.74,0,0-9.63,4.43-14.06,3.21,0,0-18.8,14.83-64.36,16.2s-116.94-52.43-116.94-52.43l51.82-98.14,135.29-88.51Z"/>
          <path class="cls-3" d="M490.06,546.39s13.61-60.76,6.96-101.35"/>
          <path class="cls-16" d="M467.21,358.25c2.58-2.67,6.77-2.89,9.64-.53,6.79,5.58,16.52,19.18,11.22,49.72-6.87,39.62-25.15,120.57-29.38,139.2-.57,2.51-2.44,4.51-4.91,5.23-6.59,1.92-20.9,4.97-40.2,2.75-2.08-.24-3.96-1.38-5.12-3.13l-45.51-68.27c-2.1-3.15-1.36-7.39,1.68-9.65l31.5-23.37c.65-.48,1.21-1.07,1.66-1.74l40.24-59.91c.24-.35.5-.68.79-.98l28.38-29.31Z"/>
        </g>
        <g>
          <g>
            <path class="cls-31" d="M331.4,623.81s6.46,35-3.46,49.91c-9.92,14.9-27.11,14.9-27.11,14.9,0,0-15.36,1.61-39.44-20.64,0,0-13.99-3.67-19.95-14.9l82.07-62.54,7.89,33.27Z"/>
            <g class="cls-50">
              <path class="cls-48" d="M320.69,611.67c2.99,8.12,3.59,16.62,4.2,25.18.59,8.31,1.07,16.86-.7,25.06-1.52,7.07-4.52,13.69-9.89,18.66-5.96,5.52-13.14,10-19.68,14.82-5.13,3.78-.14,12.46,5.05,8.63,7.22-5.32,15.1-10.29,21.7-16.38,6.16-5.69,10.12-13.48,12.11-21.56,2.29-9.25,2.12-18.86,1.47-28.3s-1.25-19.59-4.63-28.78c-2.2-5.99-11.87-3.4-9.64,2.66h0Z"/>
            </g>
            <path class="cls-12" d="M331.4,623.81s6.46,35-3.46,49.91c-9.92,14.9-27.11,14.9-27.11,14.9,0,0-15.36,1.61-39.44-20.64,0,0-13.99-3.67-19.95-14.9l82.07-62.54,7.89,33.27Z"/>
          </g>
          <path d="M259.19,660.09c18.13,4.74,34.85-2.01,45.84-16.91,3.59-4.63,6.59-9.77,9.45-15.07.25-.52,1.11-.19.93.38-1.7,5.84-4.21,11.49-7.65,16.64-6.75,10.51-18.16,18.47-30.84,19.17-6.25.4-12.53-.6-18.12-3.28-.54-.28-.21-1.13.39-.92h0Z"/>
          <g>
            <path class="cls-27" d="M133.17,444.93c-1.62-.77-14.1-7.15-23.85-25.93-.53-1.02-1.74-1.48-2.82-1.09l-24.45,8.72s-7.57,3.9-8.71,8.25l-41.73,11.01s-12.15,3.44-11.92,11.92c0,0-2.75,12.84,13.07,19.95,12.34,5.54,20.35,7.88,23.28,8.64.46.12.55.73.14.98l-14.25,8.72s-5.96,3.9-3.9,10.55,11.69,6.88,11.69,6.88c0,0,19.72-1.38,32.1-7.11,0,0,7.57,10.32,22.47,8.48,14.9-1.83,24.08-2.06,24.08-2.06,0,0,17.57,3.02,26.93,12.91.3.31-1.22-2.04-1.41-2.43-4.16-8.5-15.26-34.43-20.53-78.12-.01-.12-.09-.23-.2-.28Z"/>
            <g class="cls-37">
              <path class="cls-52" d="M113.85,486.69c.03-.29,0,.02-.02.08-.02.11-.04.23-.07.34-.05.23-.12.45-.19.67-.04.13-.09.26-.14.39.06-.14.03-.08-.02.02-.1.21-.21.41-.33.61s-.25.39-.38.58c-.26.36.18-.2-.11.13-.06.07-.12.14-.18.21-.16.17-.32.33-.5.49-.1.09-.21.18-.32.27.17-.13-.02,0-.09.06-.36.25-.94.56-1.22.68.12-.05-.25.1-.24.09-.12.04-.24.09-.36.13-.24.08-.48.16-.73.22-1.01.28-2.05.45-3.08.62-.78.13-1.28,1.13-1.05,1.85.27.84,1.01,1.18,1.85,1.05,2.38-.39,4.83-.86,6.78-2.37s3.11-3.69,3.4-6.13c.09-.78-.76-1.53-1.5-1.5-.89.04-1.4.66-1.5,1.5h0Z"/>
              <path class="cls-52" d="M114.23,488.42c3.38,3.58,8.54,4.97,13.22,5.9,5.23,1.04,10.57,1.36,15.89,1.66,1.93.11,1.92-2.89,0-3-4.89-.28-9.81-.55-14.63-1.47-4.29-.82-9.23-1.92-12.35-5.21-1.33-1.41-3.45.72-2.12,2.12h0Z"/>
              <path class="cls-52" d="M111.97,491.96l-.6.04c-7.55.72-7.82,12.38,0,12s16.05,0,23.87,1.87c2.76.66,4.82,2.12,5.71,4.94.46,1.44.43,2.94,1,4.38.25.64,1.79,3.64,1.73,2.98l6-6c-3.77-.31-6.86-2.85-9.83-4.95-3.34-2.36-6.62-4.42-10.5-5.79-8.07-2.85-17.86-3.96-26.35-3.59-5.76.25-8.4,8.14-3.03,11.18,4.33,2.45,9.08,2.64,13.86,3.61,5.34,1.09,10.54,2.67,15.63,4.6,7.23,2.74,10.36-8.86,3.19-11.57-4.53-1.71-9.13-3.16-13.86-4.22-4.01-.9-9.16-.74-12.77-2.78l-3.03,11.18c8.16-.36,18.96.41,26.18,4.62,6.99,4.08,12.03,9.01,20.51,9.7,3.03.25,6.29-2.96,6-6-.23-2.44-.97-4.16-1.97-6.36-.9-1.99-1.01-4.07-1.8-6.11-1.41-3.63-4.65-7.55-8.05-9.52-4.23-2.45-9.88-2.86-14.62-3.48-5.94-.78-11.87-.99-17.85-.7v12c4.53-.43,8.84-1.58,10.97-5.98,3.34-6.93-7.01-13.02-10.36-6.06h0Z"/>
              <path class="cls-52" d="M77.25,499.66c-12.97,5.69-27.55,5.71-41.39,7.25-7.59.85-7.68,12.86,0,12,16.17-1.8,32.32-2.25,47.44-8.89,7.05-3.1.95-13.44-6.06-10.36h0Z"/>
              <path class="cls-52" d="M56.67,483.68c-2.64-1.51-5.58-1.95-8.52-2.53-3.15-.62-5.84-1.86-8.63-3.43-1.38-.78-2.76-1.55-4.21-2.19s-3.03-1.04-4.44-1.77c-2.9-1.5-5.41-4.16-7.57-6.56l-2.12,2.12c2.24,2.21,4.94,4.21,7.67,5.75,2.89,1.63,6.07,2.83,9.12,4.12s6.08,2.47,9.21,3.43c1.58.49,3.21.82,4.78,1.33,1.27.41,2.59,1.09,3,2.45.56,1.84,3.45,1.06,2.89-.8-.91-3.02-3.73-4.22-6.54-4.95-3.39-.88-6.69-2-9.94-3.29-6.45-2.57-13.05-5.2-18.07-10.17-1.38-1.37-3.41.69-2.12,2.12,2.22,2.46,4.74,4.97,7.58,6.69,1.44.87,3.05,1.31,4.6,1.93s2.88,1.38,4.27,2.16c2.73,1.53,5.44,2.99,8.52,3.69s6.26.9,9.01,2.48c1.68.96,3.19-1.63,1.51-2.59h0Z"/>
              <path class="cls-46" d="M19.81,460.87c6.87-10.1,24.19-9.36,34.93-11.47s22.08-6.2,30.48-14.24c4.66-4.46-2.42-11.52-7.07-7.07-9.49,9.08-22.74,11.25-35.22,13.24-12,1.91-24.43,3.72-31.75,14.5-3.63,5.34,5.03,10.35,8.63,5.05h0Z"/>
              <path class="cls-46" d="M89.74,437.55c5.51-3.53,11.66-5.24,16.76-9.53s8.14-9.29,10.49-15.11-7.25-8.55-9.64-2.66c-1.9,4.69-5.19,8.85-9.34,11.75s-9.09,4.2-13.32,6.91c-5.4,3.46-.39,12.12,5.05,8.63h0Z"/>
            </g>
            <path class="cls-14" d="M133.17,444.93c-1.62-.77-14.1-7.15-23.85-25.93-.53-1.02-1.74-1.48-2.82-1.09l-24.45,8.72s-7.57,3.9-8.71,8.25l-41.73,11.01s-12.15,3.44-11.92,11.92c0,0-2.75,12.84,13.07,19.95,12.34,5.54,20.35,7.88,23.28,8.64.46.12.55.73.14.98l-14.25,8.72s-5.96,3.9-3.9,10.55,11.69,6.88,11.69,6.88c0,0,19.72-1.38,32.1-7.11,0,0,7.57,10.32,22.47,8.48,14.9-1.83,24.08-2.06,24.08-2.06,0,0,17.57,3.02,26.93,12.91.3.31-1.22-2.04-1.41-2.43-4.16-8.5-15.26-34.43-20.53-78.12-.01-.12-.09-.23-.2-.28Z"/>
          </g>
          <g>
            <path class="cls-27" d="M241.43,653.08s-47.86-38.39-65.9-93.42c0,0-33.83-39.62-42.15-114.31-.01-.13.13-.21.23-.14,3.7,2.86,45.74,34.41,100.02,33.42,0,0,1.53,57.48,15.9,90.5,0,0,1.56,4.09,4.41,9.62,9.51,18.45,27.5,31.27,48.15,33.43,3.14.33,6.3.42,9.33.15,0,0,6.9,13.36-20.92,36.13,0,0-17.08,14.94-49.05,4.6Z"/>
            <g class="cls-49">
              <path class="cls-52" d="M233.98,592.23c8.22,16.62-2.2,34.55-12.57,47.37-1.2,1.49.91,3.62,2.12,2.12,9-11.13,17.32-24.32,16.2-39.25-.31-4.1-1.34-8.06-3.17-11.76-.86-1.73-3.44-.21-2.59,1.51h0Z"/>
              <path class="cls-52" d="M236.95,596.38c5.24,2.43,10.62,4.68,15.7,7.42l1.51-2.59c-2.18-1.08-4.42-2.02-6.73-2.78-1.02-.34-2.05-.64-3.09-.91s-2.36-.73-3.49-.72c-2.02.02-2.86,2.29-2.87,4-.01,1.96.95,3.61,2.47,4.77.69.52,1.63.05,2.05-.54.77-1.07,1.75-1.89,2.89-2.53l-1.51-2.59-2.66,1.78,2.2.9c-.24-.59-.36-1.14-.07-1.74l-2.74-1.16c-.23.63-1.01,1.06-1.49,1.49-.6.54-1.17,1.2-1.42,1.99-.32,1.03-.12,2.02.22,3.01.43,1.26.56,2.2.16,3.5-.72,2.29-2,4.46-3.05,6.61s-1.97,4.12-2.74,6.28-.99,4.33-1.67,6.46-2.52,3.41-3.23,5.46c-.32.93-.34,1.93-.8,2.81s-.87,1.68-.35,2.69c.91,1.78,3.27,3.18,5,4.02s3.25-1.74,1.51-2.59c-1.05-.51-2.03-1.11-2.91-1.88-.31-.27-.67-.57-.92-.9-.03.55.05.61.25.17.13-.21.24-.44.33-.68.34-.81.41-1.66.66-2.49.31-1.01,1.02-1.8,1.65-2.63,1.2-1.58,1.78-3.29,2.17-5.22.45-2.18,1.06-4.28,1.93-6.34s1.9-4.05,2.88-6.05c.9-1.85,1.98-3.77,2.4-5.81.24-1.15.23-2.3-.11-3.43-.23-.75-.81-1.56-.4-2.32.28-.51,1.03-.92,1.44-1.31.63-.59,1.06-1.23,1.36-2.04.59-1.58-2.02-2.7-2.74-1.16-.62,1.31-.78,2.68-.23,4.05.34.83,1.32,1.49,2.2.9l2.66-1.78c1.59-1.07.18-3.55-1.51-2.59-1.61.91-2.89,2.12-3.96,3.61l2.05-.54c-.81-.62-1.15-1.81-.91-2.78l.1-.32c.21-.27.18-.33-.09-.17-.29.07-.28.11.01.13.23.04.45.09.68.14.75.16,1.49.34,2.23.54,2.99.8,5.88,1.9,8.65,3.27,1.72.85,3.23-1.67,1.51-2.59-5.09-2.74-10.47-4.99-15.7-7.42-1.74-.81-3.27,1.78-1.51,2.59h0Z"/>
              <path class="cls-52" d="M238.72,604.19c3.4,3.56,7.54,5.91,12.37,6.89,5.14,1.04,7.96-4.47,4.86-8.36-.9-1.13-1.62-1.67-2.89-2.35l-2.52,9.32c2.38.04,4.41,1.39,6.56,2.24,2.66,1.05,5.47,1.67,8.23,2.36,5.25,1.31,10.51,2.58,15.82,3.58,9.86,1.85,19.89,2.68,29.85,3.75l-3.54-8.54c.09-.09-4.56-.09-5.43-.09-2.77,0-5.53-.18-8.28-.41-5.21-.45-10.39-1.12-15.61-1.49-4.9-.35-9.81-.54-14.72-.75-2.93-.12-5.86-.25-8.78-.37-1.75-.07-5.65.45-6.6-1.33-2.13-4-7.85-2.69-9.14,1.19-.21.63-.42,1.27-.63,1.9l9.82,1.33-.11-1.07c-.64-6.41-9.39-6.45-10,0-.45,4.74-3.79,10.28-5.99,14.42s-5.15,7.49-6.48,11.88c-1.17,3.84,2.57,6.92,6.15,6.15,7.7-1.65,13.6-7.01,19.17-12.26s10.48-11.16,12.69-18.69c1.87-6.37-7.23-8.39-9.64-2.66-3.71,8.8-10.23,16.01-18.36,20.93l7.34,2.99c-.4-2.93.29-7.99,2.48-10.23,2-2.04,3.77,1.08,6.26,1.72,5.81,1.51,13.18-.41,19.11-.72,13.97-.72,27.39,2.08,41.06,4.52l-2.99-7.34c-1.46,3.16-10.33,3.24-13.35,3.59-5.41.63-10.86.91-16.3,1.04-9.96.23-20.22-.85-30.02,1.33l3.85,9.14c14.23-7.84,29.92-11.96,46.16-12.17l-4.32-7.52c.73-1.31-.13-.44-1.34-.37-1.45.09-2.93.44-4.37.62-2.86.35-5.73.61-8.6.79-5.43.35-10.87.39-16.31.2v10c10.34-1.09,20.69-1.47,31.08-1.14-.84-3.11-1.68-6.21-2.52-9.32-1.76,1.03-3.25,1.5-5.27,1.83-6.33,1.05-3.65,10.69,2.66,9.64,2.79-.46,5.22-1.42,7.65-2.84,4.37-2.56,2.36-9.16-2.52-9.32-10.39-.33-20.74.05-31.08,1.14-6.28.66-6.57,9.78,0,10,7.68.26,15.36.05,23-.78,5.27-.57,13.31-.14,16.26-5.42,1.82-3.26-.46-7.57-4.32-7.52-18.01.23-35.44,4.84-51.21,13.53-5.11,2.82-1.55,10.34,3.85,9.14,6.12-1.37,12.47-.9,18.7-.89,6.09,0,12.19-.09,18.27-.51s11.74-1.08,17.49-2.26c4.52-.93,9.11-2.4,11.18-6.89,1.22-2.65.47-6.73-2.99-7.34-8.93-1.6-17.86-3.45-26.88-4.48-9.7-1.11-19.3-.21-29,.43-1.4.09-3.26.56-4.55.03-1.62-.67-2.6-2.3-4.46-2.85-3.13-.92-6.49-.07-9.09,1.76-6.68,4.71-8.25,14.63-7.23,22.11.44,3.24,4.88,4.48,7.34,2.99,10.54-6.38,18.19-15.59,22.96-26.91l-9.64-2.66c-1.72,5.85-5.78,10.18-10.12,14.28s-8.74,8.4-14.75,9.69l6.15,6.15c.73-2.39,2.48-4.35,3.76-6.46,1.51-2.48,2.8-5.08,4.01-7.71,2.16-4.74,4.57-9.55,5.06-14.78h-10l.11,1.07c.55,5.51,7.96,6.91,9.82,1.33.21-.63.42-1.27.63-1.9-3.05.4-6.09.8-9.14,1.19,2.92,5.49,8.65,5.99,14.26,6.24,7.25.33,14.5.55,21.74.98s14.06,1.43,21.11,1.88c5.34.34,13.93,1.57,18.02-2.65,3.25-3.35.63-8.09-3.54-8.54-10.35-1.11-20.73-2-30.93-4.15-4.98-1.05-9.93-2.25-14.86-3.53s-9.45-4.18-14.68-4.26c-4.86-.07-6.94,6.97-2.52,9.32l.87.78,4.86-8.36c-3.25-.66-5.65-1.9-7.96-4.32-4.46-4.66-11.52,2.42-7.07,7.07h0Z"/>
              <path class="cls-52" d="M239.29,642.27c11.54.75,23.08-1.36,34.53-2.57,5.39-.57,10.79-1.09,16.19-1.56,2.86-.25,5.72-.48,8.58-.7s6.58-1.17,9.29-.66l-3.49-3.49.24.94.5-3.85c-1.25,2.22-6.61,2.74-8.77,3.22-3.51.79-7.06,1.38-10.63,1.79-6.52.74-13.1.95-19.66.98s-13.2-.13-19.8-.19-12.98-.43-18.98,2.04c-5.02,2.07-4.66,9.57,1.33,9.82,14.16.58,28.35,1.42,42.52.88,13.58-.52,27.06-2.64,40.67-1.72l-2.52-9.32c-5.65,3.18-13.89,2.89-20.19,3.15-7.18.29-14.29.52-21.42,1.44s-14.11,2.06-21.26,2.2-14.55-.32-21.82.44c-6.3.66-6.46,10.55,0,10,18.18-1.54,36.39-1.26,54.51.85l-3.54-8.54c-.47.38-4.57.25-5.57.31-2.53.14-5.05.22-7.58.26-5.06.09-10.12.01-15.19-.06v10c14.68.05,29.37.05,44.02-1,6.38-.45,6.43-10.46,0-10-14.65,1.04-29.34,1.04-44.02,1-6.44-.02-6.44,9.91,0,10s13.29.19,19.93-.07c5.37-.21,11.15.17,15.48-3.37,3.76-3.07.24-8.1-3.54-8.54-18.12-2.11-36.34-2.39-54.51-.85v10c7.59-.8,15.17-.23,22.77-.46,8.13-.24,16.12-1.78,24.18-2.65,7.35-.8,14.74-.74,22.11-1.2,6.8-.43,14.63-.89,20.67-4.29,4.56-2.56,2.21-9-2.52-9.32-13.61-.93-27.09,1.2-40.67,1.72-14.17.54-28.36-.3-42.52-.88l1.33,9.82c7.28-2.99,16.15-1.69,23.86-1.58,8.47.12,16.95.22,25.4-.33s38.35-1.54,34.83-15.32c-.4-1.57-1.84-3.18-3.49-3.49-5.31-.99-11.35.24-16.71.68-6.04.5-12.07,1.06-18.1,1.68-12.07,1.25-24.27,3.56-36.43,2.77-6.43-.42-6.4,9.58,0,10h0Z"/>
              <path class="cls-47" d="M125.78,478c11.57,10.99,14.55,28.3,20.96,42.36,8.08,17.72,17.42,34.94,26.2,52.32,4.43,8.77,8.85,17.53,13.28,26.3,4.18,8.28,8.22,16.54,13.82,23.98,9.49,12.6,25.88,26.87,23.2,44.44-1.16,7.55,10.41,10.81,11.57,3.19,2.93-19.18-8.33-34.02-19.84-48.02-12.87-15.65-20.82-34.46-29.9-52.43s-19.35-36.91-27.97-55.83c-6.97-15.28-10.2-32.79-22.83-44.79-5.6-5.32-14.1,3.15-8.49,8.49h0Z"/>
              <path class="cls-52" d="M210.74,559.14c8.21,7.54,18.67,7.95,29.27,7.93,12.14-.02,24.29-.06,36.43-.08,7.72-.02,7.73-12.02,0-12-10.23.02-20.45.05-30.68.07-8.41.02-19.79,1.81-26.54-4.4-5.68-5.22-14.19,3.24-8.49,8.49h0Z"/>
            </g>
            <path class="cls-23" d="M241.43,653.08s-47.86-38.39-65.9-93.42c0,0-33.83-39.62-42.15-114.31-.01-.13.13-.21.23-.14,3.7,2.86,45.74,34.41,100.02,33.42,0,0,1.53,57.48,15.9,90.5,0,0,1.56,4.09,4.41,9.62,9.51,18.45,27.5,31.27,48.15,33.43,3.14.33,6.3.42,9.33.15,0,0,6.9,13.36-20.92,36.13,0,0-17.08,14.94-49.05,4.6Z"/>
          </g>
          <path class="cls-19" d="M175.09,558.86s9.12,11.53,15.73,14.87"/>
          <path d="M224.13,583.71c26.54,15.26,56.14,27.92,87.22,27.96.79-.03.97,1.21.11,1.34-23.57,3.14-47.15-5.76-67.9-16.16-6.97-3.58-13.73-7.53-20.18-12.02-.66-.47-.03-1.59.74-1.11h0Z"/>
          <g>
            <path class="cls-35" d="M81.82,506.42s-19.04-19.3-8.48-71.54c0,0,.24-3.94,8.71-8.25,5.92-3.02,21.32-6.71,23.22-8.06.02-.01.32-.23-.31.19-1.54,1.02-18.35,10.9-9.38,49.64,9.4,40.59,32.78,44.45,32.78,44.45,0,0-8.9.19-19.21,1.5-12.49,1.58-19.54.38-27.34-7.92Z"/>
            <g class="cls-43">
              <path class="cls-45" d="M69.18,444.8c7.65-3.99,16.11-5.12,23.75-9.02,6.05-3.08,12.93-7.32,16.64-13.13,2.66-4.16-2.66-9.56-6.84-6.84-4.43,2.88-9.41,3.68-13.91,6.18-4.87,2.7-10.1,3.45-15.55,4.59-6.29,1.32-3.63,10.96,2.66,9.64,5.66-1.19,11.57-1.88,16.64-4.78s10.39-3.86,15.21-6.99c-2.28-2.28-4.56-4.56-6.84-6.84-1.83,2.87-4.76,4.05-7.42,5.99s-5.45,3.72-8.56,5.03c-3.26,1.37-6.94,1.81-10.31,2.97-3.62,1.24-7.13,2.81-10.52,4.58-5.71,2.98-.66,11.61,5.05,8.63h0Z"/>
              <path class="cls-42" d="M90.85,479.88c.62,1.76-.85,3.46-1.75,4.85-1.04,1.6-2.01,3.26-3.43,4.56-2.47,2.27-5.77,3.42-8.88,4.52-.76.27-1.27,1.02-1.05,1.85.2.74,1.08,1.32,1.85,1.05,3.75-1.34,7.67-2.77,10.56-5.63,1.64-1.62,2.81-3.7,4.06-5.62s2.33-4.08,1.54-6.37c-.27-.76-1.03-1.27-1.85-1.05-.74.2-1.32,1.08-1.05,1.85h0Z"/>
              <path class="cls-42" d="M91.2,480.04c.27,2.17,1.6,3.96,3.54,4.97,2.11,1.1,4.53,1.17,6.86,1.12.78-.02,1.54-.68,1.5-1.5s-.66-1.52-1.5-1.5c-.95.02-1.91.03-2.86-.06-.13-.01-.27-.02-.4-.04.16.02-.02,0-.08-.02-.24-.04-.48-.09-.71-.15s-.47-.12-.7-.2c-.1-.03-.2-.07-.31-.11-.26-.1.09.06-.06-.03-.32-.18-.65-.35-.96-.56-.23-.15.06.07-.06-.04-.06-.06-.13-.11-.2-.17-.14-.13-.28-.27-.41-.41-.06-.06-.11-.13-.17-.2.13.16.04.05-.03-.06-.09-.14-.18-.29-.26-.44-.06-.13-.1-.24-.03-.04-.03-.08-.06-.16-.08-.24-.03-.1-.06-.2-.08-.31-.02-.07-.06-.37-.02-.04-.1-.78-.62-1.54-1.5-1.5-.73.03-1.6.67-1.5,1.5h0Z"/>
              <path class="cls-42" d="M89.98,490.43c1.85,3.14,4.38,4.44,7.94,4.79v-10c-3.41.35-6.28,1.22-9.25,3s-5.7,4.43-9.13,5.63c-5.22,1.83-4.51,9.68,1.33,9.82,7.3.17,15.96.46,22.42-3.43l-6.06-.78c7.48,6.68,14.98,14.26,23.86,19.08l2.52-9.32c-8.33-.87-17.04-1.73-24.7-5.37-3.21-1.52-6.04-4.17-9.51-5.07-3.13-.81-6.57-.31-9.7.24-4.08.72-5.02,7.4-1.19,9.14,3.14,1.43,6.25,2.88,9.12,4.8,2.31,1.54,4.4,3.33,7.11,4.16,5.61,1.72,10.89-.91,14.01-5.64,2.7-4.08,3.32-10.03-.43-13.77-4.01-4-10.21-2.34-14.74-.27-5.85,2.67-.77,11.29,5.05,8.63.96-.46,1.98-.73,3.04-.82-.99.29-1.72.91-2.19,1.86-2.16.83-3.74-.65-5.38-1.77-3.36-2.3-6.82-4.13-10.54-5.82l-1.19,9.14c4.23-.75,5.78.68,9.32,2.68,2.99,1.69,6.24,3.03,9.51,4.06,7.24,2.29,14.9,3.04,22.42,3.82,5.03.52,6.67-7.06,2.52-9.32-8.12-4.41-14.98-11.4-21.83-17.52-1.65-1.47-4.09-1.97-6.06-.78-4.76,2.86-12.01,2.19-17.38,2.06l1.33,9.82c5.3-1.87,10.18-7.71,15.72-8.28,6.41-.66,6.44-9.36,0-10l.7.16c-3.26-5.54-11.91-.52-8.63,5.05h0Z"/>
              <path class="cls-48" d="M83.19,509.05c12.48,7.05,27.1,5.18,40.79,4.58,1.92-.08,1.93-3.08,0-3-13.08.57-27.33,2.58-39.27-4.17-1.68-.95-3.2,1.64-1.51,2.59h0Z"/>
            </g>
            <path class="cls-3" d="M81.82,506.42s-19.04-19.3-8.48-71.54c0,0,.24-3.94,8.71-8.25,5.92-3.02,21.32-6.71,23.22-8.06.02-.01.32-.23-.31.19-1.54,1.02-18.35,10.9-9.38,49.64,9.4,40.59,32.78,44.45,32.78,44.45,0,0-8.9.19-19.21,1.5-12.49,1.58-19.54.38-27.34-7.92Z"/>
          </g>
          <path d="M112.78,424.55c.19,1.7-.5,3.05-1.02,4.56-1.51,4.39-2.49,8.95-3.03,13.56-1.4,12.36.43,25.02,4.94,36.62,2.2,5.85,5.06,11.45,8.32,16.81.14.24.07.54-.17.69-.23.14-.52.07-.67-.14-3.6-5.22-6.65-10.83-9.13-16.7-6.18-14.73-7.93-31.45-4-47.02.4-1.56.84-3.11,1.36-4.63.54-1.51.94-3.13,2.51-4.21.36-.26.89.02.89.46h0Z"/>
          <path d="M92.07,429.76c-4.16,13.42-4.8,28.14-1.27,41.77,1.07,4.59,2.89,8.95,4.77,13.3.13.26.02.58-.24.69-.24.1-.52,0-.64-.23l-1.65-3.2c-6-11.85-7.75-25.71-5.75-38.79.77-4.77,1.94-9.46,3.87-13.92.25-.57,1.16-.23.92.38h0Z"/>
        </g>
        <g>
          <g>
            <path class="cls-31" d="M438.97,576.85s21.63,8.56,26.22,36.54c0,0,7.34,35.54-4.36,52.97,0,0-11.69,20.41-34.62,16.74,0,0-16.51-1.38-36.92-19.03,0,0-14.17-1.08-24.55-16.06l74.23-71.15Z"/>
            <g class="cls-32">
              <path class="cls-48" d="M444.33,690.25c10.41-5.14,16.91-12.37,21.65-22.98,4.98-11.14,6.91-23.24,6.57-35.39s-2.77-24.64-5.58-36.67c-1.19-5.11-1.82-11.07-6.23-14.51s-11-5.47-16.39-7.32c-4.69-1.61-8.52,5.07-4.86,8.36,9.41,8.44,16.89,18.7,21.65,30.44,2.38,5.86,11,3.78,9.64-2.66-3.05-14.41-12.94-26.8-26.42-32.8-3.5-1.56-7.31.27-7.52,4.32-.84,16.12-5.32,32.62-17.4,44.02s-29.2,10.62-45.06,13.81c-6.3,1.27-3.64,10.91,2.66,9.64,9.43-1.9,19.21-1.92,28.52-4.47,8.37-2.3,15.92-6.84,22.04-12.97,13.22-13.26,18.29-31.8,19.23-50.03l-7.52,4.32c11.35,5.05,19.25,14.65,21.82,26.82l9.64-2.66c-5.42-13.37-13.46-25.2-24.22-34.85l-4.86,8.36c3.92,1.35,11.54,2.93,13.68,6.84s2.48,10.15,3.41,14.46c2.08,9.68,3.71,19.48,3.81,29.41.1,9.73-1.35,19.51-5.24,28.48-1.81,4.17-4.08,8.52-7.06,11.99s-6.98,5.43-11,7.41c-5.77,2.85-.71,11.47,5.05,8.63h0Z"/>
            </g>
            <path class="cls-20" d="M438.97,576.85s21.63,8.56,26.22,36.54c0,0,7.34,35.54-4.36,52.97,0,0-11.69,20.41-34.62,16.74,0,0-16.51-1.38-36.92-19.03,0,0-14.17-1.08-24.55-16.06l74.23-71.15Z"/>
          </g>
          <path d="M392.32,656.22c21.65-1.99,39.2-15.1,46.88-35.49,2.58-6.46,4.29-13.32,5.57-20.31.05-.27.31-.45.58-.4.24.04.41.26.41.5-.1,7.18-1.22,14.4-3.5,21.32-5.52,17.92-20.41,31.91-39.11,34.88-3.6.57-7.23.87-10.88.5-.6-.07-.59-.98.04-1h0Z"/>
          <g>
            <path class="cls-27" d="M407.89,528.48l30.88,48.31s6.73,33.02-15.44,54.11c-22.17,21.1-36.54,19.57-36.54,19.57,0,0-24.15,7.34-51.36-25.07,0,0-12.84-3.67-11.92-13.15,0,0-17.43-1.22-30.88-18.65s-13.45-33.02-13.45-33.02c0,0-12.84-44.03-11.01-82.24,0,0,78.27,3.06,139.72-38.52,0,0-26.6,40.05,5.81,73.68,0,0-.31,2.14-5.81,14.98Z"/>
            <g class="cls-40">
              <path class="cls-52" d="M399.55,491.52c2.56,5.45-3.87,11.7-6.9,15.45-3.79,4.7-6.77,9.51-8.27,15.42-2.51,9.89-.09,23.31-6.92,31.64-4.86,5.93,3.59,14.46,8.49,8.49,9.35-11.42,6.46-25.09,10.38-38.32,2.17-7.34,8.49-11.95,12.19-18.41,3.72-6.49,4.61-13.49,1.39-20.33-3.28-6.98-13.63-.9-10.36,6.06h0Z"/>
              <path class="cls-52" d="M386.09,565.1c5.77-2.66,10.35,23.23,10.6,26.46.81,10.56-1.55,21.11-9.63,28.45-17.48,15.89-43.74,8.27-62.69-.16-6.99-3.11-13.11,7.23-6.06,10.36,14.67,6.53,30.62,12.32,46.96,10.82,14.09-1.29,27.7-7.41,36.03-19.18,8.62-12.17,8.81-28.15,5.54-42.16-2.89-12.37-10.32-32.57-26.82-24.96-7.01,3.23-.92,13.58,6.06,10.36h0Z"/>
              <path class="cls-52" d="M397.35,556.72c1.96-8.56,4.17-17.05,6.62-25.49,2.16-7.43-9.42-10.6-11.57-3.19-2.45,8.43-4.66,16.93-6.62,25.49-1.72,7.52,9.84,10.73,11.57,3.19h0Z"/>
              <path class="cls-52" d="M402.33,542.57c3.37,10.55,9.49,19.03,16.58,27.38,1.67,1.96,3.31,3.94,4.67,6.13,1.28,2.07,1,3.9,2.72,1.15,2.06-3.3-.5-1.43-2.52-1.08-6.14,1.07-12.35,1.52-18.58,1.63-7.71.13-7.74,12.13,0,12s15.19-.86,22.68-2.22,11.39-5.72,8.35-13.08c-2.57-6.22-7.33-11.12-11.57-16.22-4.68-5.64-8.51-11.86-10.75-18.87-2.34-7.33-13.93-4.2-11.57,3.19h0Z"/>
              <path class="cls-52" d="M399.68,509.21c-1.89,9.29-8.15,16.2-6.2,26.18,1.19,6.12,9.92,5.28,11.57,0,1.62-5.17,3.28-10.71,8.51-13.18l-7.27-9.42c-2.86,3.55-4.21,7.09-4.71,11.64-.47,4.26,0,8.53-1.96,12.46-2.2,4.42-4.65,8.37-5.75,13.28s-1.38,10.06-1,15.09c1.43,19.02,14.32,41.75,2,59.43l10.97,4.62c4.24-13.95,6.58-28.49,6.77-43.08.19-15.2-2.65-30.29-1.44-45.5l-11.18,3.03c5.58,11.07,6.18,25.22,7.51,37.35,1.48,13.51,2.29,27.07,2.52,40.66l10.24-4.24c.95,1.21.13-2.51.1-2.91-.14-1.88-.23-3.76-.28-5.64-.1-3.14-.08-6.28,0-9.42.17-7.25.71-14.48,1.17-21.72.9-14.05,1.26-27.98-1.05-41.93l-11.57,3.19c1.7,7.08,3.4,14.16,5.1,21.25,1.59,6.62,3.88,13.48,4.25,20.31.67,12.46-5.5,26.03-9.79,37.49l11.79,1.6c-.15-19.8,9.66-38.07,11.65-57.65-3.73,1.01-7.45,2.02-11.18,3.03,7.41,16.2,9.91,40.29-4.09,53.93-7.08,6.9-18.05,9.4-27.19,12.36-10.78,3.49-21.67,6.34-33.07,6.43-6.52.05-8.47,10.62-1.6,11.79,9.87,1.67,20.4,3.33,30.44,2.65,9.91-.67,17.46-5.4,24.5-12.1,13.23-12.61,26.55-26.33,32.15-44.16l-11.79-1.6c-.08,14.47-8.75,26.43-19.01,35.87-2.81,2.58-5.74,5.02-8.73,7.39-1.44,1.14-2.89,2.27-4.37,3.36-.47.35-3.33,2.09-2.41,2.1-1.06-.01-2.3-2.33-3.18-2.73l-1.01-1.01c-.44,2.11-.18,2.28.79.51,2.47-1.64,4.74-5.53,6.83-7.73,9.48-9.98,19.56-19.17,26.99-30.89,7.67-12.1,12.81-25.68,16.87-39.36-3.66.48-7.31.96-10.97,1.43,2.79,4.19,4.61,8.75,4.9,13.82.13,2.34.03,4.68-.45,6.98-.21,1.02-.48,2.04-.81,3.03-.22.67-1.52,2.83-.76,2.56-7.24,2.55-4.12,14.15,3.19,11.57,8.1-2.85,10.31-12.45,10.81-20.22.54-8.38-1.88-16.84-6.52-23.8-2.84-4.26-9.45-3.69-10.97,1.43-5.1,17.18-12.04,34.04-24.02,47.64-5.69,6.46-12.07,12.27-17.94,18.58-4.67,5.01-12.78,12.19-8.86,19.76,2.97,5.73,11.18,12.09,17.87,10.09,4.14-1.24,7.77-4.93,11.1-7.53s6.43-5.12,9.47-7.88c12.9-11.71,23.07-27,23.17-44.95.04-6.89-9.78-7.98-11.79-1.6-4.65,14.79-15.93,25.97-26.72,36.57-5.92,5.81-11.43,10.7-20.13,10.96s-17.15-.89-25.49-2.3l-1.6,11.79c13.72-.1,26.89-3.71,39.82-8.03,11.06-3.7,23.05-7.22,30.92-16.4,15.76-18.4,13.45-45.65,3.98-66.35-2.74-6-10.65-2.19-11.18,3.03-2,19.66-11.8,37.61-11.65,57.65.05,7.08,9.49,7.74,11.79,1.6,4.72-12.59,10.91-26.99,10.22-40.68-.37-7.31-2.52-14.49-4.22-21.57-1.86-7.73-3.71-15.45-5.57-23.18-1.83-7.64-12.81-4.28-11.57,3.19,2.49,14.99,1.16,30.28.19,45.35-.48,7.54-.91,15.09-.78,22.64.11,6.39-.36,13.69,3.74,18.91,3.31,4.21,10.32.58,10.24-4.24-.25-14.88-1.21-29.73-2.96-44.51-1.57-13.25-2.62-27.47-8.71-39.55-2.89-5.74-10.74-2.42-11.18,3.03-1.17,14.59,1.45,29.05,1.45,43.62s-2.23,28.18-6.35,41.77c-2.07,6.83,7.24,9.97,10.97,4.62,12.09-17.35,4.8-38.09.96-56.78-1.96-9.52-2.61-19.6,2.26-28.36,2.31-4.16,4.01-7.8,4.53-12.58.38-3.46-.52-8.87,1.8-11.74,4.28-5.31-.91-12.42-7.27-9.42-8.09,3.81-11.51,12.31-14.03,20.35h11.57c-1.23-6.32,4.95-13.68,6.2-19.8,1.54-7.54-10.03-10.76-11.57-3.19h0Z"/>
              <path class="cls-52" d="M315.54,622.28c6.89,8.14,19.69,8.62,29.54,9.4,10.89.86,22.01-.22,31.84-5.27,9.08-4.66,15.08-12.52,18.39-22.04s3.75-19.93,9.06-28.66c4.02-6.61-6.35-12.65-10.36-6.06-4.27,7.01-6,14.89-7.86,22.78s-4.25,16.19-11.36,21.27-16.38,6.48-25.13,6.22c-4.91-.14-9.82-.69-14.67-1.47-4.13-.66-8.15-1.35-10.97-4.67-5-5.9-13.45,2.62-8.49,8.49h0Z"/>
              <path class="cls-52" d="M393.67,586.02c1.48,7.09,2.74,18.19-3.18,23.59-6.33,5.78-13.92,10.6-20.75,15.77-6.08,4.6-.11,15.03,6.06,10.36,4.75-3.59,9.5-7.19,14.25-10.78,4.13-3.12,9-6.05,12.08-10.3,6.22-8.57,5.16-22.07,3.12-31.83-1.58-7.55-13.15-4.36-11.57,3.19h0Z"/>
              <path class="cls-52" d="M403.14,580.45c.92-2.57,1.31-5.35,1.13-8.07l-11.79,1.6.23-2.31,11.18,3.03c-.31-2.56-.62-5.12-.93-7.67-.39-3.22-2.48-6-6-6-2.94,0-6.39,2.76-6,6,.31,2.56.62,5.12.93,7.67s1.64,5.03,4.4,5.79c2.46.68,5.57-.42,6.78-2.76s1.38-4.31.98-6.93c-.44-2.91-3.94-4.7-6.58-4.3-2.78.42-5.39,2.87-5.2,5.89.12,1.84-.08,3.15-.7,4.88-1.1,3.05,1.24,6.57,4.19,7.38,3.33.91,6.28-1.13,7.38-4.19h0Z"/>
              <path class="cls-52" d="M397.47,580.59c7.72,0,7.73-12,0-12s-7.73,12,0,12h0Z"/>
              <path class="cls-52" d="M397.39,580.51c7.72,0,7.73-12,0-12s-7.73,12,0,12h0Z"/>
              <path class="cls-52" d="M392.32,447.62c.02.4-12.71,4.26-14.1,4.71-5.16,1.69-10.34,3.32-15.55,4.84-11.01,3.23-22.16,6.02-33.46,8.05-23.04,4.14-46.51,4.13-69.85,4.11-7.72,0-7.73,11.99,0,12,27.04.03,53.97-.44,80.54-6,12.81-2.68,25.41-6.26,37.86-10.25,5.94-1.91,12.03-3.7,17.82-6.02,4.97-1.99,9.09-5.68,8.74-11.45-.47-7.67-12.47-7.73-12,0h0Z"/>
              <path class="cls-52" d="M285.02,501.85c6.42,1.06,5.92,10.4,6.46,15.38.79,7.26,1.58,14.53,2.37,21.79.29,2.63,1.65,6.63,0,8.85-1.54,2.07-5.14,3.01-7.46,3.67-7.23,2.07-14.65,2.76-22.15,2.6s-7.72,11.83,0,12c9.86.21,20.53-.79,29.74-4.56,3.91-1.6,7.68-3.87,10.16-7.38,2.94-4.15,2.44-8.47,1.92-13.29-1.13-10.35-2.1-20.73-3.41-31.06-1.08-8.56-4.83-17.99-14.44-19.57-7.55-1.24-10.8,10.32-3.19,11.57h0Z"/>
              <path class="cls-48" d="M415.09,499.13c-1.45,6.55-4.43,11.54-8.34,16.9-3.64,5.01-5.03,10.59-2.59,16.46s7.08,10.98,10.58,16.25c3.87,5.82,7.55,11.76,11.02,17.82,13.59,23.77,23.52,49.46,27.82,76.56,1.21,7.61,12.77,4.38,11.57-3.19-4.09-25.76-13.3-50.41-25.64-73.32-6.07-11.27-12.93-22.1-20.34-32.54-1.6-2.25-4.69-5.31-4.29-8.29.29-2.12,2.84-4.42,4.04-6.07,3.77-5.2,6.33-11.13,7.72-17.39,1.67-7.52-9.89-10.74-11.57-3.19h0Z"/>
            </g>
            <path class="cls-23" d="M407.89,528.48l30.88,48.31s6.73,33.02-15.44,54.11c-22.17,21.1-36.54,19.57-36.54,19.57,0,0-24.15,7.34-51.36-25.07,0,0-12.84-3.67-11.92-13.15,0,0-17.43-1.22-30.88-18.65s-13.45-33.02-13.45-33.02c0,0-12.84-44.03-11.01-82.24,0,0,78.27,3.06,139.72-38.52,0,0-26.6,40.05,5.81,73.68,0,0-.31,2.14-5.81,14.98Z"/>
          </g>
          <g>
            <path class="cls-27" d="M407.89,439.81s38.87-23.55,54.02-38.67c1.04-1.04,2.53-1.46,3.96-1.11l25.13,6.23s4.77-2.71,13.71-1.74c3.6.39,7.11,1.39,10.45,2.78,5.46,2.28,14.37,6.66,12.88,10.5l42.8,8.87s11.31,2.14,11.01,13.15c0,0,5.7,21.92-48.94,29.75-.47.07-.59.7-.17.92l16.09,8.47s9.78,7.64,2.14,14.37c0,0-4.89,7.95-19.26,4.28l-14.56-3.44s-1.03,5.94-16.93,6.19c-20.49.32-26.6,0-26.6,0,0,0-3.67.31-7.64-3.97,0,0-24.46,3.67-31.49,7.95,0,0-15.59,12.23-20.79,9.17s-29.66-33.94-5.81-73.68Z"/>
            <g class="cls-28">
              <path class="cls-52" d="M412.75,498.33c-.12-2.59,28.48-4.18,31.91-4.53,5.74-.59,11.48-1.19,17.22-1.77,2.64-.27,5.37-.67,8.03-.49,1.82.12,6.23.66,7.07,2.55v-6.06c1.1-1.93-2.43-.81-3.47-.79-1.78.02-3.56-.08-5.33-.2-3.59-.23-7.16-.58-10.76-.6-6.91-.05-13.84.68-20.65,1.87-6.78,1.19-13.77,2.84-20.12,5.54s-9.4,8.75-13.17,13.97c-4.2,5.81,4.59,11.5,9.42,7.27s8.6-5.74,14.77-6.88,11.51-3.27,17.34-4.62c12.67-2.95,25.72-3.36,38.67-2.99l-1.6-11.79c-7.76,2.21-15.66,3.98-23.66,5.07-7.5,1.03-15.09,1.17-22.59,2.25-3.44.5-6.72,1.18-9.92,2.58-.64.28-8.32,4.75-8.24,4.89,2.13.84,2.69.74,1.68-.27-.42-.58-.89-1.13-1.41-1.63-1.02-.99-2.28-1.84-3.54-2.49-3.04-1.58-6.61-1.84-9.82-.68-7.21,2.61-4.1,14.21,3.19,11.57,2.25-.81,4.1,3.2,6.02,4.29,2.53,1.45,5.14,1.37,7.83.48,3.4-1.12,5.78-3.75,8.97-5.2,2.9-1.31,6.38-1.73,9.5-2.08,15.35-1.74,30.22-2.97,45.18-7.22,6.57-1.87,5.17-11.59-1.6-11.79-14.62-.43-29.4.29-43.65,3.84-6.58,1.64-13.01,3.45-19.63,4.9-6.37,1.39-11.17,5.05-15.98,9.26l9.42,7.27c2.21-3.05,4.29-7.22,7.63-9.09s8.44-2.74,12.24-3.63c7.77-1.82,15.73-2.78,23.71-2.72,7.62.06,15.39,1.7,22.96.16,6.96-1.42,10.54-8.36,4.49-13.49-6.39-5.43-14.04-5.94-22.02-5.17s-16.59,1.7-24.88,2.55-16.12,1.35-24.09,2.53c-7.03,1.04-13.47,5.5-13.12,13.31s12.35,7.73,12,0h0Z"/>
              <path class="cls-52" d="M405.95,510.34c7.72,0,7.73-12,0-12s-7.73,12,0,12h0Z"/>
              <path class="cls-52" d="M499.37,487.51c9.89,9.55,22.89,11.07,35.87,13.06,2.93.45,5.33.72,7.75,2.49,2.26,1.66,4.39,3.62,6.47,5.51,4.3,3.9,8.43,8.23,10.58,13.72,2.78,7.11,14.39,4.02,11.57-3.19-2.26-5.79-5.51-10.75-9.79-15.26s-9.36-9.49-14.72-12.44c-5.9-3.25-13.69-2.96-20.18-4.13-7-1.26-13.84-3.2-19.07-8.25-5.56-5.37-14.05,3.11-8.49,8.49h0Z"/>
              <path class="cls-52" d="M573.62,451.28c-5.04,3.66-10.41,6.53-16.37,8.38s-11.84,3.19-17.56,5.67c-7.06,3.07-.96,13.41,6.06,10.36,5.73-2.49,12.02-3.39,17.88-5.53s11.1-4.93,16.05-8.52c6.19-4.49.21-14.91-6.06-10.36h0Z"/>
              <path class="cls-52" d="M582.55,459.17c.42-.74,1.4-1.22,2.14-1.74,1.53-1.1,3.03-2.26,4.44-3.5,2.59-2.27,4.75-4.87,6.83-7.61,1.96-2.58.41-6.71-2.15-8.21-3.08-1.8-6.25-.44-8.21,2.15-1.73,2.28-3.87,4.39-6.11,6.17-2.68,2.13-5.55,3.6-7.3,6.69-3.81,6.73,6.56,12.79,10.36,6.06h0Z"/>
              <path class="cls-52" d="M540.63,464.97c-2.77.67-5.62,1.49-7.95,3.21-.63.47-1.01,1.32-.54,2.05.4.62,1.38,1.04,2.05.54.56-.41,1.15-.78,1.77-1.1.27-.14.55-.26.82-.39.16-.07.16-.07,0,0,.08-.03.16-.07.24-.1.16-.06.33-.13.49-.19,1.28-.47,2.59-.81,3.91-1.13.76-.19,1.29-1.09,1.05-1.85-.26-.79-1.03-1.25-1.85-1.05h0Z"/>
              <path class="cls-52" d="M538.66,469.14c.61-.12,1.19-.43,1.72-.76.45-.29.89-.6,1.39-.82l-.36.15c.23-.09.46-.16.71-.2l-.4.05c.16-.02.31-.02.46,0,.36.04.82-.2,1.06-.44.26-.26.46-.69.44-1.06s-.14-.79-.44-1.06l-.3-.23c-.23-.14-.49-.2-.76-.2-.86-.09-1.75.25-2.48.68-.55.32-1.05.72-1.64.98l.36-.15c-.18.07-.36.13-.56.17-.35.07-.72.39-.9.69-.19.32-.27.8-.15,1.16s.34.71.69.9c.37.2.74.23,1.16.15h0Z"/>
              <path class="cls-52" d="M538.11,499.24c5.01.06,12.1.15,16.55-2.45,4.72-2.75,8.84-6.61,13.57-9.46,5.51-3.32.49-11.97-5.05-8.63-3.75,2.26-7.34,4.71-10.79,7.4-4.05,3.15-9.28,3.21-14.28,3.14-6.44-.08-6.44,9.92,0,10h0Z"/>
              <path class="cls-52" d="M401.67,454.83c2.44-2.25,6.82-3.39,9.76-4.98,3.37-1.83,6.73-3.7,10.09-5.54,6.27-3.45,12.61-6.79,18.27-11.2,11.31-8.81,21.36-21.45,28.61-33.76,3.27-5.56-5.37-10.59-8.63-5.05-3.7,6.29-8.1,12.02-12.89,17.52s-9.9,11.35-16.13,15.56c-5.78,3.9-12.06,7.08-18.16,10.43-3.06,1.68-6.09,3.48-9.24,5s-6.09,2.51-8.75,4.95c-4.75,4.36,2.34,11.42,7.07,7.07h0Z"/>
              <path class="cls-46" d="M501.19,401.63c-4.92.59-9.67.34-14.53-.67-2.17-.45-4.32-1-6.46-1.58-1.22-.34-2.44-.69-3.65-1.04-2.16-.96-2.39-.76-.71.6-1.39-6.28-11.04-3.62-9.64,2.66s9.1,6.89,14.11,8.15c6.85,1.72,13.83,2.72,20.89,1.88,6.31-.75,6.39-10.76,0-10h0Z"/>
              <path class="cls-46" d="M517.8,416.03c5.73,5.76,13.4,7.08,21.06,8.58,9.15,1.79,18.31,3.55,27.51,5.08,18.48,3.08,37.13,5.23,55.89,4.99,6.43-.08,6.45-10.08,0-10-17.22.23-34.34-1.55-51.33-4.31-8.25-1.34-16.47-2.88-24.68-4.47-6.88-1.33-16.17-1.69-21.38-6.93-4.54-4.57-11.61,2.5-7.07,7.07h0Z"/>
              <path class="cls-48" d="M480.56,495.33c-10.33-5.71-25.09-3.6-35.57.65-11.1,4.5-22.15,8.46-33.06,13.54-5.83,2.71-.76,11.34,5.05,8.63,4.65-2.17,9.28-4.68,14.1-6.45,4.39-1.61,8.84-2.5,13.13-4.47,8.73-4,22.09-8.36,31.3-3.27,5.64,3.12,10.69-5.52,5.05-8.63h0Z"/>
              <path class="cls-48" d="M576.17,427.62c2.96,5.89,2.42,12.02.47,18.05-1.98,6.13-3.6,12.58-6.74,18.24-3.13,5.63,5.51,10.68,8.63,5.05,4.02-7.23,6.43-15.73,8.73-23.66,2.15-7.44,1.01-15.83-2.45-22.71-2.89-5.75-11.52-.69-8.63,5.05h0Z"/>
              <path class="cls-48" d="M557.47,476.38c-1.52,6.2-4.82,13.35-10.41,16.93-5.81,3.71-15.49,4.26-22.17,4.89s-6.41,10.6,0,10c8.91-.84,20.78-1.55,28.26-6.98s11.88-13.69,13.96-22.18c1.53-6.25-8.11-8.92-9.64-2.66h0Z"/>
            </g>
            <path class="cls-14" d="M407.89,439.81s38.87-23.55,54.02-38.67c1.04-1.04,2.53-1.46,3.96-1.11l25.13,6.23s4.77-2.71,13.71-1.74c3.6.39,7.11,1.39,10.45,2.78,5.46,2.28,14.37,6.66,12.88,10.5l42.8,8.87s11.31,2.14,11.01,13.15c0,0,5.7,21.92-48.94,29.75-.47.07-.59.7-.17.92l16.09,8.47s9.78,7.64,2.14,14.37c0,0-4.89,7.95-19.26,4.28l-14.56-3.44s-1.03,5.94-16.93,6.19c-20.49.32-26.6,0-26.6,0,0,0-3.67.31-7.64-3.97,0,0-24.46,3.67-31.49,7.95,0,0-15.59,12.23-20.79,9.17s-29.66-33.94-5.81-73.68Z"/>
          </g>
          <path class="cls-19" d="M335.43,625.39s9.29,2.68,18.8,0"/>
          <path class="cls-19" d="M323.51,612.25s4.53.9,8.83.32"/>
          <path d="M424.55,620.77l1.9-5.16c.72-1.6.83-3.18,0-4.67-.7-1.11-2.43-3.09-3.29-4.23-5.68-7.13-11.31-14.51-16.8-21.77-6.61-8.82-13.12-17.71-19.13-26.97-1.02-1.54-1.97-3.14-2.94-4.72-.94-1.74-2.21-3.33-1.63-5.49.08-.32.41-.52.74-.44,2.05.91,2.56,2.68,3.58,4.36,2.78,4.69,5.81,9.22,8.92,13.72,9.81,14.31,20.13,28.37,30.33,42.42,2.08,2.43,3.09,5.21,1.46,8.28,0,0-2.21,5.03-2.21,5.03-.27.56-1.14.24-.93-.37h0Z"/>
          <path d="M408.37,528.6c-.09,2.61-1.8,4.56-3.26,6.52-4.57,5.58-11.02,9.3-17.67,11.86-.59.24-.99-.66-.39-.92,6.16-2.94,12.34-6.71,16.66-12.06,1.46-1.74,2.38-3.81,3.69-5.64.24-.46.99-.28.97.24h0Z"/>
          <path d="M465.58,496.68c-3.05-2.95-5.08-6.63-6.77-10.41-3.4-7.56-5.5-15.76-5.93-24.04-.3-6.17.45-12.51,2.06-18.48,1.52-5.98,3.44-11.88,6.06-17.48,3.61-7.3,8.2-15,15.78-18.71.25-.11.55,0,.66.26.11.26,0,.55-.26.66-7.09,3.87-11.27,11.42-14.57,18.53-3.22,7.34-5.49,15.24-6.79,23.16-1.32,7.88-.75,16.05,1.21,23.79,1.91,7.87,5.81,14.89,9.34,22.12.14.25.04.58-.23.7-.19.09-.42.05-.57-.09h0Z"/>
          <g>
            <path class="cls-35" d="M517.34,493.62s-20.95-.46-12.38-43.72c0,0,6.57-27.67,23.08-32.1,0,0,2.91-3.79-11.7-10.01-3.73-1.59-7.68-2.65-11.71-3.09-4.95-.54-11.38-.62-14.2,2.02,0,0-22.93,19.22-23.69,49.39s15.59,44.38,15.59,44.38l17.89-.14s13.76.46,17.12-6.73Z"/>
            <g class="cls-29">
              <path class="cls-42" d="M493.14,466.96c.27,2.4-.9,4.69-2.19,6.65s-3.77,3-5.97,3.77c-4.54,1.61-9.37,2.11-14.13,2.58-1.9.19-1.92,3.19,0,3,5.57-.55,11.26-1.12,16.48-3.29,2.56-1.06,4.82-2.33,6.33-4.73s2.81-5.14,2.49-7.99c-.21-1.9-3.21-1.92-3,0h0Z"/>
              <path class="cls-42" d="M493.54,468.3c.42,1.55,1.04,3.03,1.69,4.5.52,1.19,1.07,2.37,1.8,3.45,1.69,2.53,4.2,4.21,7.3,4.31.81.03,1.5-.71,1.5-1.5,0-.83-.69-1.47-1.5-1.5-2.23-.07-3.88-1.45-5-3.27-1.27-2.06-2.27-4.46-2.9-6.79-.21-.78-1.07-1.26-1.85-1.05s-1.26,1.06-1.05,1.85h0Z"/>
              <path class="cls-42" d="M489.46,477.75c.26,3.27.25,6.16,3.17,8.25,1.97,1.41,4.78,2.95,7.22,2.73l-3.54-1.46.79.66,3.54-8.54c-4.94-.51-9.88-1.35-14.72.09-4.51,1.34-9.39.82-13.44,3.52-4.99,3.32-1.62,9.88,3.85,9.14,5.13-.69,10.43-.23,15.58-.04,4.83.18,10.79-.29,15.22,1.93l-2.3-2.99.22.51,2.3-5.65c-2.34,1.77-7.58.73-10.36.7-3.08-.03-6.1.09-9.15.64-4.29.77-11.48,1.44-14.61,4.75-1.63,1.72-1.78,4-.78,6.06,2.31,4.78,14.09,4.46,18.53,4.38,3.69-.07,7.55-.31,11.19-.96,4.56-.82,8.81-2.62,13.43-3.26,6.35-.88,3.65-10.52-2.66-9.64-6.27.87-11.98,3.26-18.34,3.68-5.1.34-11.44.59-16.34-1.2l2.99,2.3-.16-.33-.78,6.06c.78-.83,5.1-1,6.43-1.32,3.15-.76,6.12-1.16,9.37-1.15,4.84.02,12.15,1.07,16.29-2.06,1.59-1.2,3.21-3.49,2.3-5.65-2.65-6.3-11.93-6.35-17.88-6.61-7.73-.34-15.46-.82-23.14.22,1.28,3.05,2.57,6.09,3.85,9.14,2.88-1.92,7.67-1.55,11.06-2.51,3.84-1.09,8.15-.14,12.06.26,4.21.43,6.74-5.84,3.54-8.54-1.73-1.45-3.05-2.24-5.35-2.04l3.54,1.46c-.84-1.02-1.77-1.6-2.97-2.11-3.14-1.33.3,2.47.07-.43-.51-6.37-10.51-6.43-10,0h0Z"/>
              <path class="cls-45" d="M484.23,410.41c8.41,2.19,17.01,3.34,25.33,5.89s15.58,5.04,23.89,5.8v-10c-5.29-.09-11.64-1.22-15.94-4.44s-9-3.04-14.18-4.15l-1.33,9.82c5.57.08,11.11.45,16.62,1.26,6.3.93,9.01-8.71,2.66-9.64-6.41-.94-12.8-1.53-19.27-1.62-5.53-.08-6.93,8.62-1.33,9.82,2.78.6,5.92.58,8.62,1.37,2.56.75,4.48,2.98,6.98,4.05,5.28,2.27,11.45,3.42,17.18,3.52,6.53.12,6.3-9.42,0-10-7.94-.73-15.37-3.74-22.96-5.96s-15.79-3.33-23.61-5.36c-6.23-1.62-8.89,8.02-2.66,9.64h0Z"/>
            </g>
            <path class="cls-18" d="M517.34,493.62s-20.95-.46-12.38-43.72c0,0,6.57-27.67,23.08-32.1,0,0,2.91-3.79-11.7-10.01-3.73-1.59-7.68-2.65-11.71-3.09-4.95-.54-11.38-.62-14.2,2.02,0,0-22.93,19.22-23.69,49.39s15.59,44.38,15.59,44.38l17.89-.14s13.76.46,17.12-6.73Z"/>
          </g>
          <path d="M497.02,481.71c-8.87-23.18-1.87-50.14,18.49-64.78.22-.16.54-.12.7.1.15.21.12.5-.06.67-4.33,4-8.17,8.45-11.35,13.3-9.58,14.74-11.34,33.56-6.84,50.35.21.58-.7.97-.94.35h0Z"/>
        </g>
        <g>
          <g>
            <path class="cls-35" d="M233.62,478.34s-5.27,43.26,16.86,92.68c0,0,9.4,23.73,24.11,33.29s37.93,9.72,48.03,8.57c.76-.09.94-.43.2-.62-14.41-3.78-31.44-11.83-43.11-47.54,0,0-12.76-35.62-11.54-86.37h-34.55Z"/>
            <path d="M233.91,478.66s.09-.05.11-.09c.03-.06.02-.07.02-.02v.16s-.04.33-.04.33l-.04.66c-.96,20.85,1.77,41.83,7.22,61.95,2.3,8.58,5.16,17,8.6,25.19,4.67,11.39,10.33,22.77,18.96,31.69,12.86,13.24,34.68,15.11,52.21,14.06,0,0,1.32-.12,1.32-.12.23-.02.44-.04.58-.08.06,0,.14-.08.06,0-.05.03-.08.28-.02.33.05.07.04.05.03.04-.07-.05-.3-.1-.52-.16-.33-.07-1.58-.44-1.95-.53-30.68-7.95-42.33-41.68-47.88-69.59-4.26-21.04-5.49-42.72-4.88-64.14,0,0,.47.48.47.48-8.53-.06-25.73-.19-34.26-.15h0ZM233.33,478.01c8.7.05,26.15-.08,34.84-.15,0,0,.47,0,.47,0v.49c-.23,21.32,2.06,42.75,6.45,63.6,2.2,10.35,4.96,20.76,8.77,30.64,6.53,17.62,17.81,33.61,36.85,38.61,0,0,1.28.37,1.28.37l.64.18c.2.07.42.09.74.25.08.06.17.1.28.26.12.14.1.52-.03.64-.22.25-.37.26-.51.32-.39.13-1.65.19-2.08.25-17.59,1.19-40.27-.78-53.32-13.91-18.33-18.85-28.96-52.81-33.13-78.38-2.11-13.72-2.93-27.72-1.56-41.56,0,0,.08-.67.08-.67l.04-.34.02-.17s0-.07.04-.19c.03-.1.08-.19.13-.26h0Z"/>
          </g>
          <path class="cls-7" d="M212.79,541.72l-29.66-2.38c-1.67-.13-3.33-1.7-3.74-3.58l-2.87-13.26c-.89-4.13,1.05-7.69,4.42-7.54l38.7,1.73c2.65.12,4.18,2.7,3.46,5.69l-3.43,14.24c-.76,3.14-3.85,5.33-6.89,5.09Z"/>
          <path class="cls-7" d="M348.01,531.78l-33.55,5.13c-2.09.32-4.05-1.12-4.37-3.22l-1.89-12.57c-.49-3.26,1.81-6.27,5.08-6.66l33.33-3.91c2.04-.24,3.9,1.17,4.23,3.19l1.87,11.57c.5,3.09-1.61,5.99-4.7,6.46Z"/>
          <g>
            <path class="cls-39" d="M200.28,501.64l12.79-11.55c1.32-1.19,3.03-1.85,4.8-1.85h69.81c2.43,0,4.49,1.8,4.8,4.21l6.95,52.86c.18,1.33-.47,2.64-1.64,3.32l-16.73,9.94c-.46.27-1.03.25-1.46-.05l-79.19-54.79c-.71-.49-.77-1.5-.14-2.08Z"/>
            <path d="M199.52,500.81l12.93-11.44c1.22-1.08,2.77-1.77,4.39-1.96,1.25-.11,3.16-.02,4.43-.02,21.49.31,44.28.14,65.82.04,2.97-.28,5.88,1.9,6.24,4.9,0,0,.58,4.28.58,4.28,1.44,9.88,3.1,24.2,4.41,34.24,0,0,1.05,8.57,1.05,8.57l.53,4.28c.25,1.57.47,3.3-.74,4.61-.41.61-1.33.98-1.92,1.37,0,0-1.86,1.09-1.86,1.09,0,0-3.73,2.18-3.73,2.18,0,0-7.44,4.38-7.44,4.38l-1.86,1.1-.93.55c-.56.38-1.49.43-2.08,0-20.05-13.96-47.05-32.12-67.31-45.9-2.71-1.87-8.88-6.07-11.56-7.94,0,0-.44-.31-.44-.31l-.22-.15c-1.3-.82-1.47-2.86-.28-3.86h0ZM201.03,502.48c-.08.07-.09.22,0,.29l1.61,1.12,3.55,2.46c18.76,13.11,44.7,31.59,63.54,44.7,0,0,7.1,4.91,7.1,4.91.47.3,2.19,1.52,2.67,1.84,0,0,.44.3.44.3.31.18.63.2.97-.03,1.89-1.13,8.19-4.91,10.18-6.1,1.2-.73,4.38-2.64,5.54-3.35,1.08-.58,2.18-1.36,2.19-2.72,0-.45-.16-1.51-.23-2.02-1.09-7.69-3.07-22.09-4.14-29.93-.79-5.7-1.53-11.41-2.25-17.12l-.55-4.28c-.28-2.23-2.35-3.69-4.56-3.49-21.55-.08-44.31-.28-65.82.04-1.03.05-3.15-.04-4.2.1-1.25.17-2.42.73-3.34,1.58l-12.69,11.7h0Z"/>
          </g>
          <path d="M273.78,501.95c-.14-.26-.45-.62-.49-.88.2-.2.66-.55.89-.74,4.22-3.53,9.19-7.12,13.68-10.32.32-.22,1.29-.93,1.61-1.15.22-.08.22-.43.83-.02.29.2.5.48.62.78.27.69-.08.61-.2.8l-.5.44c-4.14,3.64-8.73,7.71-13.1,11.06-.54.4-1.42,1.12-1.97,1.5-.16-.07-.29-.21-.44-.36-.32-.33-.68-.72-.93-1.1h0Z"/>
          <g>
            <path class="cls-34" d="M278.69,558.74h-66.16c-2.14,0-3.99-1.53-4.37-3.63l-9.06-49.76c-.49-2.68,1.53-5.05,4.24-5.02l67.93.83c2.06.03,3.83,1.63,4.15,3.75l7.22,49.04c.37,2.52-1.5,4.79-3.95,4.79Z"/>
            <path d="M278.69,559.81l-65.26-.49c-1.47.07-3.07-.21-4.17-1.26-1.17-.96-1.63-2.49-1.81-3.94-1.88-10.42-3.88-21.7-5.9-32.09-.88-4.52-2.61-12.57-3.44-17.1-.36-3.02,2.36-5.81,5.36-5.65,18.87,0,46.12.48,65.26.64.64.04,2.54-.02,3.2.08,2.62.32,4.6,2.69,4.77,5.26,0,0,.15,1.01.15,1.01.6,4.11,2.61,17.87,3.24,22.2,0,0,2.33,16.15,2.33,16.15l1.16,8.07.15,1.01c.56,3.01-1.87,6.18-5.02,6.11h0ZM278.69,557.68c1.83.02,3.23-1.87,2.86-3.66,0,0-.15-1.01-.15-1.01l-1.21-8.07c-1.53-9.97-3.93-26.36-5.43-36.31-.11-.62-.35-2.41-.45-3.03-.13-1.97-1.57-3.41-3.58-3.25,0,0-2.04-.02-2.04-.02l-32.63-.42c-10.88-.18-21.75-.26-32.63-.53-1.93-.14-3.55,1.52-3.44,3.41.64,4.47,2.01,12.56,2.71,17.02,1.78,10.43,3.88,21.7,5.79,32.11,0,0,.18,1,.18,1,.24,1.5,1.4,2.75,2.86,3.12.49.13,1.36.13,1.88.12,0,0,65.26-.49,65.26-.49h0Z"/>
          </g>
        </g>
      </g>
      <g>
        <ellipse class="cls-1" cx="58.9" cy="252.4" rx="36.23" ry="49.07"/>
        <g>
          <path class="cls-36" d="M514.4,215.91c8.65,118.15-79.73,232.77-207.39,252.98-139.75,22.12-261.96-76.77-260.57-216.46C47.77,119.32,162.07,15.42,291.23,14.85c118.82-.52,214.87,87.69,223.17,201.06Z"/>
          <g class="cls-41">
            <path class="cls-48" d="M427.71,57.96c12.2,13.62,24.48,27.25,35.01,42.22,10.84,15.39,19.1,32.12,26.01,49.6s13.7,34.8,16.91,53.09c1.68,9.6,1.87,19.33.61,28.99s-2.98,18.69-3.19,28.21c-.25,10.85.06,21.6-1.72,32.36s-4.81,20.93-8.93,30.87c-2.96,7.13,8.65,10.23,11.57,3.19,7.64-18.41,10.94-37.77,11.02-57.65.04-10.47.89-20.49,2.42-30.84s2.17-19.51,1.07-29.42c-2.17-19.72-9.09-38.39-16.16-56.79-7.01-18.24-14.87-36.16-25.71-52.49-11.84-17.85-26.16-33.89-40.42-49.81-5.16-5.76-13.63,2.75-8.49,8.49h0Z"/>
            <path class="cls-48" d="M502.21,287.68c.97,4.37-2.37,11.17-3.67,15.39-1.65,5.38-3.43,10.73-5.18,16.08-1.66,5.05-3.3,10.11-4.81,15.21s-2.4,10.33-5.07,14.86c-3.92,6.67,6.45,12.72,10.36,6.06,2.91-4.95,4.17-10.46,5.75-15.93,1.83-6.31,3.88-12.55,5.93-18.8,1.95-5.94,3.91-11.89,5.68-17.89s3.97-11.94,2.58-18.18c-1.67-7.54-13.24-4.35-11.57,3.19h0Z"/>
          </g>
          <path class="cls-3" d="M514.4,215.91c8.65,118.15-79.73,232.77-207.39,252.98-139.75,22.12-261.96-76.77-260.57-216.46C47.77,119.32,162.07,15.42,291.23,14.85c118.82-.52,214.87,87.69,223.17,201.06Z"/>
        </g>
        <g>
          <path class="cls-44" d="M474.77,231.88c8.14,105.67-72.32,205.9-189.22,219.97-128.35,15.45-239.24-78.07-236.02-203.28,3.04-118.09,107.59-205.52,224-201.57,106.96,3.63,193.5,84.34,201.24,184.88Z"/>
          <path d="M475.75,231.8c9.57,148.92-138.47,253.6-278.1,213.82C85.68,414.58,22.09,298.8,60.26,188.24,103.84,62.85,259.78,8.87,373.66,74.67c56.69,31.92,97.32,91.78,102.09,157.13h0ZM473.78,231.95c-4.73-68.27-49.07-130.42-109.74-160.97C229.38,1.27,54.14,93.23,49.72,248.41c-2.75,92.55,59.72,171.96,148.15,196.41,138.91,39.25,285.57-64.86,275.91-212.87h0Z"/>
        </g>
        <g>
          <path class="cls-30" d="M455.35,231.92c13.36,98.31-58.69,193.53-169.67,209.23-121.09,17.13-230.79-66.6-234.44-182.15-3.45-109.11,90.73-193.2,201.61-193.22,102.44-.02,189.78,72.57,202.5,166.14Z"/>
          <path d="M456.32,231.79c16.87,142.24-123.74,239.43-255.66,205.22-90.13-22.39-156.58-103.51-149.01-197.92,9.96-123.77,140.04-197.41,255.28-166.9,74.88,18.52,139.1,81.82,149.39,159.61h0ZM454.38,232.05c-17.11-121.05-147.88-191.24-261.52-157.48C72.82,108.57,11.77,240.18,78.74,349.26c33.87,54.86,96.16,89.03,159.96,93.17,120.39,9.39,231.35-85.65,215.68-210.38h0Z"/>
        </g>
        <path class="cls-24" d="M496.87,185.09s-19.31-3.22-34.94-2.88c-.56.01-1.1.09-1.64.23-4.74,1.22-25.54,8.65-25.34,45.42,0,0-2.48,28.49,20.38,52.36,2.35,2.46,5.6,3.88,9,3.93,9.82.14,31.07.12,37.84-2.62,8.91-3.6-5.29-96.44-5.29-96.44Z"/>
        <ellipse class="cls-1" cx="494.56" cy="233.83" rx="35.31" ry="48.84"/>
        <ellipse class="cls-15" cx="497.18" cy="232.9" rx="27.19" ry="41.75"/>
        <path class="cls-17" d="M109.14,410.44l-.41,2.78c-.5,2.81.21,5.49,1.34,8.11.03.07.05.13.06.18,4.19,16.14,39.48,52.53,123.22,58.08.19.01.39.03.58.05,6.79.81,137.73,15.1,231.53-77.9.3-.3.51-.97.64-1.66.16-.88.19-1.78.13-2.67l.03-22.18c0-1.01-.41-1.85-1.16-1.16-12.47,11.48-87.52,73.21-202.86,83.52,0,0-81.65,8.48-151.64-48.23-.83-.67-1.55.03-1.46,1.09Z"/>
      </g>
      <g>
        <path class="cls-11" d="M300.08,121.98c-80.32-11.53-145.24,59.61-152.79,145.14-7.48,84.86,30.52,158.98,125.41,162.52,75.74,2.83,143.13-57.8,151.55-141,8.48-83.85-45.61-158.69-124.18-166.66Z"/>
        <path class="cls-6" d="M400.68,284.53c-8.41,83.21-75.93,146.1-151.55,141-76.4-5.15-132.9-77.66-125.41-162.52,7.54-85.53,77-149.79,154.35-142.97s131.1,80.63,122.62,164.48Z"/>
        <path class="cls-25" d="M376.28,284.46c-7.2,71.25-64.94,125.11-129.61,120.76s-113.64-66.49-107.23-139.15c6.46-73.24,65.86-128.27,132-122.44,65.46,5.77,112.1,69.03,104.84,140.83Z"/>
        <g>
          <path class="cls-5" d="M201,310.79s29.89,21.28,85.96,6.66"/>
          <path class="cls-22" d="M209.22,263.08s-9.14-37.35-46.12-25.19"/>
          <path class="cls-5" d="M282.32,269.53s24.66-34.37,61.68-17.34"/>
        </g>
        <g>
          <line class="cls-19" x1="286.88" y1="422.43" x2="309.49" y2="425.99"/>
          <line class="cls-19" x1="308.95" y1="415.16" x2="332.76" y2="418.21"/>
          <line class="cls-19" x1="327.91" y1="405.21" x2="352.97" y2="407.42"/>
          <line class="cls-19" x1="346.26" y1="391.6" x2="373.16" y2="391.92"/>
          <line class="cls-19" x1="359.98" y1="378.06" x2="384.68" y2="380.24"/>
          <line class="cls-19" x1="371.36" y1="363.75" x2="395.94" y2="365.91"/>
          <line class="cls-19" x1="380.46" y1="349.25" x2="404.93" y2="351.41"/>
          <line class="cls-19" x1="388.53" y1="332.63" x2="413.82" y2="332.3"/>
          <line class="cls-19" x1="394.89" y1="314.55" x2="419.01" y2="316.68"/>
          <line class="cls-19" x1="398.42" y1="299.87" x2="422.13" y2="303.28"/>
          <line class="cls-19" x1="400.78" y1="283.48" x2="424.54" y2="285.57"/>
          <line class="cls-19" x1="402.3" y1="266.35" x2="425.1" y2="268.36"/>
          <line class="cls-19" x1="400.88" y1="252.51" x2="424.29" y2="254.58"/>
          <line class="cls-19" x1="399.12" y1="239.09" x2="422.38" y2="241.14"/>
          <line class="cls-19" x1="395.87" y1="224.43" x2="418.96" y2="226.46"/>
          <line class="cls-19" x1="391.76" y1="211.51" x2="414.14" y2="212.07"/>
          <line class="cls-19" x1="385.58" y1="196.99" x2="407.69" y2="197.69"/>
          <line class="cls-19" x1="378.85" y1="184.65" x2="400.63" y2="185.34"/>
          <line class="cls-19" x1="370.38" y1="172.21" x2="393.15" y2="174.64"/>
          <line class="cls-19" x1="360.7" y1="160.76" x2="381.99" y2="161.77"/>
          <line class="cls-19" x1="349.44" y1="150.06" x2="371.41" y2="152"/>
          <line class="cls-19" x1="334.09" y1="138.85" x2="355.75" y2="140.76"/>
        </g>
      </g>
      <g>
        <path class="cls-33" d="M364.48,115.02c12.04,88.65-52.92,174.51-153,188.67C102.29,319.14,3.37,243.64.08,139.44-3.02,41.05,81.9-34.78,181.88-34.8c92.37-.02,171.13,65.44,182.6,149.82Z"/>
        <path class="cls-51" d="M455.35,233.63c13.36,98.31-58.69,193.53-169.67,209.23-121.09,17.13-230.79-66.6-234.44-182.15-3.45-109.11,90.73-193.2,201.61-193.22,102.44-.02,189.78,72.57,202.5,166.14Z"/>
        <path class="cls-34" d="M153.35,130.82c2.63,4.23.08,10.51-6.28,14.11-6.94,3.92-15.08,2.86-17.45-2.42-2.24-4.98,1.85-11.32,8.5-14.19,6.14-2.64,12.73-1.52,15.23,2.5Z"/>
        <path class="cls-34" d="M225.53,90.2c4.1,4.92-6.2,16.16-24.54,25.58-20.01,10.28-40,13.6-42.79,6.9-2.64-6.32,11.59-18.59,30.2-27.06,17.2-7.82,33.23-10.1,37.13-5.43Z"/>
      </g>
    </g>
  </g>
</svg>